<svg width="40" height="40" viewBox="0 0 40 40" fill="none" xmlns="http://www.w3.org/2000/svg">
<path d="M20 3.33301C10.335 3.33301 2.5 9.67551 2.5 17.4997C2.5 22.4913 5.69667 26.8705 10.515 29.3938L8.66583 35.558C8.55333 35.9322 8.97083 36.2413 9.29583 36.0247L16.3142 31.3455C17.5033 31.5522 18.735 31.6663 20 31.6663C29.665 31.6663 37.5 25.3238 37.5 17.4997C37.5 9.67551 29.665 3.33301 20 3.33301Z" fill="#263238"/>
<path d="M12.5 14.9997H7.49996C7.03996 14.9997 6.66663 14.6263 6.66663 14.1663C6.66663 13.7063 7.03996 13.333 7.49996 13.333H12.5C12.96 13.333 13.3333 13.7063 13.3333 14.1663C13.3333 14.6263 12.96 14.9997 12.5 14.9997Z" fill="#FFCA28"/>
<path d="M20.8334 21.6663V14.1663C20.8334 13.7063 21.2067 13.333 21.6667 13.333C22.1267 13.333 22.5 13.7063 22.5 14.1663V21.6663C22.5 22.1263 22.1267 22.4997 21.6667 22.4997C21.2067 22.4997 20.8334 22.1263 20.8334 21.6663Z" fill="#FFCA28"/>
<path d="M26.6666 21.6663V14.1663C26.6666 13.7063 27.04 13.333 27.5 13.333C27.96 13.333 28.3333 13.7063 28.3333 14.1663V21.6663C28.3333 22.1263 27.96 22.4997 27.5 22.4997C27.04 22.4997 26.6666 22.1263 26.6666 21.6663Z" fill="#FFCA28"/>
<path d="M27.1842 17.6724L31.2792 13.5774C31.605 13.2515 32.1325 13.2515 32.4575 13.5774C32.7833 13.9032 32.7833 14.4307 32.4575 14.7557L28.3625 18.8507C28.0367 19.1766 27.5092 19.1766 27.1842 18.8507C26.8592 18.5257 26.8592 17.9982 27.1842 17.6724Z" fill="#FFCA28"/>
<path d="M30.065 17.2205L33.155 21.1513C33.4392 21.513 33.3767 22.0371 33.015 22.3213C32.6534 22.6055 32.1292 22.543 31.845 22.1813L28.755 18.2505C28.4709 17.8888 28.5334 17.3646 28.895 17.0805C29.2567 16.7963 29.7809 16.8588 30.065 17.2205Z" fill="#FFCA28"/>
<path d="M25 22.4997H21.6667C21.2067 22.4997 20.8334 22.1263 20.8334 21.6663C20.8334 21.2063 21.2067 20.833 21.6667 20.833H25C25.46 20.833 25.8334 21.2063 25.8334 21.6663C25.8334 22.1263 25.46 22.4997 25 22.4997Z" fill="#FFCA28"/>
<path d="M19.9441 21.3686L17.2599 13.8686C17.1391 13.5527 16.8458 13.3594 16.5283 13.3444C16.4358 13.3402 16.0783 13.3419 15.9941 13.3436C15.6674 13.3494 15.3633 13.5444 15.2391 13.8686L12.5549 21.3686C12.3899 21.7986 12.6049 22.2802 13.0349 22.4452C13.4649 22.6102 13.9466 22.3952 14.1116 21.9652L14.5166 20.8336H17.9833L18.3883 21.9652C18.5533 22.3952 19.0349 22.6094 19.4649 22.4452C19.8949 22.2811 20.1091 21.7977 19.9441 21.3686ZM15.1133 19.1669L16.2499 15.9902L17.3866 19.1669H15.1133Z" fill="#FFCA28"/>
<path d="M10.8333 15H9.16663V21.6667C9.16663 22.1267 9.53996 22.5 9.99996 22.5C10.46 22.5 10.8333 22.1267 10.8333 21.6667V15Z" fill="#FFCA28"/>
</svg>
